<svg width="70" height="24" viewBox="0 0 70 24" fill="none" xmlns="http://www.w3.org/2000/svg">
<path d="M1.10769 9.216C1.17169 8.224 1.55035 7.45067 2.24369 6.896C2.94769 6.34133 3.84369 6.064 4.93169 6.064C5.67835 6.064 6.32369 6.19733 6.86769 6.464C7.41169 6.73067 7.82235 7.09333 8.09969 7.552C8.37702 8.01067 8.51569 8.528 8.51569 9.104C8.51569 9.76533 8.33969 10.3307 7.98769 10.8C7.63569 11.2693 7.21435 11.584 6.72369 11.744V11.808C7.35302 12 7.84369 12.352 8.19569 12.864C8.54769 13.3653 8.72369 14.0107 8.72369 14.8C8.72369 15.4293 8.57969 15.9893 8.29169 16.48C8.00369 16.9707 7.57702 17.36 7.01169 17.648C6.44635 17.9253 5.76902 18.064 4.97969 18.064C3.82769 18.064 2.87835 17.7707 2.13169 17.184C1.39569 16.5867 1.00102 15.7333 0.947688 14.624H2.70769C2.75035 15.1893 2.96902 15.6533 3.36369 16.016C3.75835 16.368 4.29169 16.544 4.96369 16.544C5.61435 16.544 6.11569 16.368 6.46769 16.016C6.81969 15.6533 6.99569 15.1893 6.99569 14.624C6.99569 13.8773 6.75569 13.3493 6.27569 13.04C5.80635 12.72 5.08102 12.56 4.09969 12.56H3.68369V11.056H4.11569C4.97969 11.0453 5.63569 10.9013 6.08369 10.624C6.54235 10.3467 6.77169 9.90933 6.77169 9.312C6.77169 8.8 6.60635 8.39467 6.27569 8.096C5.94502 7.78667 5.47569 7.632 4.86769 7.632C4.27035 7.632 3.80635 7.78667 3.47569 8.096C3.14502 8.39467 2.94769 8.768 2.88369 9.216H1.10769ZM12.7037 6.16V18H10.8797V6.16H12.7037ZM23.1784 13.376C23.1784 13.7067 23.1571 14.0053 23.1144 14.272H16.3784C16.4318 14.976 16.6931 15.5413 17.1624 15.968C17.6318 16.3947 18.2078 16.608 18.8904 16.608C19.8718 16.608 20.5651 16.1973 20.9704 15.376H22.9384C22.6718 16.1867 22.1864 16.8533 21.4824 17.376C20.7891 17.888 19.9251 18.144 18.8904 18.144C18.0478 18.144 17.2904 17.9573 16.6184 17.584C15.9571 17.2 15.4344 16.6667 15.0504 15.984C14.6771 15.2907 14.4904 14.4907 14.4904 13.584C14.4904 12.6773 14.6718 11.8827 15.0344 11.2C15.4078 10.5067 15.9251 9.97333 16.5864 9.6C17.2584 9.22667 18.0264 9.04 18.8904 9.04C19.7224 9.04 20.4638 9.22133 21.1144 9.584C21.7651 9.94667 22.2718 10.4587 22.6344 11.12C22.9971 11.7707 23.1784 12.5227 23.1784 13.376ZM21.2744 12.8C21.2638 12.128 21.0238 11.5893 20.5544 11.184C20.0851 10.7787 19.5038 10.576 18.8104 10.576C18.1811 10.576 17.6424 10.7787 17.1944 11.184C16.7464 11.5787 16.4798 12.1173 16.3944 12.8H21.2744ZM28.5254 9.04C29.2081 9.04 29.8108 9.17867 30.3334 9.456C30.8668 9.72267 31.2828 10.0587 31.5814 10.464V9.184H33.4214V18.144C33.4214 18.9547 33.2508 19.6747 32.9094 20.304C32.5681 20.944 32.0721 21.4453 31.4214 21.808C30.7814 22.1707 30.0134 22.352 29.1174 22.352C27.9228 22.352 26.9308 22.0693 26.1414 21.504C25.3521 20.9493 24.9041 20.192 24.7974 19.232H26.6054C26.7441 19.6907 27.0374 20.0587 27.4854 20.336C27.9441 20.624 28.4881 20.768 29.1174 20.768C29.8534 20.768 30.4454 20.544 30.8934 20.096C31.3521 19.648 31.5814 18.9973 31.5814 18.144V16.672C31.2721 17.088 30.8508 17.44 30.3174 17.728C29.7948 18.0053 29.1974 18.144 28.5254 18.144C27.7574 18.144 27.0534 17.952 26.4134 17.568C25.7841 17.1733 25.2828 16.6293 24.9094 15.936C24.5468 15.232 24.3654 14.4373 24.3654 13.552C24.3654 12.6667 24.5468 11.8827 24.9094 11.2C25.2828 10.5173 25.7841 9.98933 26.4134 9.616C27.0534 9.232 27.7574 9.04 28.5254 9.04ZM31.5814 13.584C31.5814 12.976 31.4534 12.448 31.1974 12C30.9521 11.552 30.6268 11.2107 30.2214 10.976C29.8161 10.7413 29.3788 10.624 28.9094 10.624C28.4401 10.624 28.0028 10.7413 27.5974 10.976C27.1921 11.2 26.8614 11.536 26.6054 11.984C26.3601 12.4213 26.2374 12.944 26.2374 13.552C26.2374 14.16 26.3601 14.6933 26.6054 15.152C26.8614 15.6107 27.1921 15.9627 27.5974 16.208C28.0134 16.4427 28.4508 16.56 28.9094 16.56C29.3788 16.56 29.8161 16.4427 30.2214 16.208C30.6268 15.9733 30.9521 15.632 31.1974 15.184C31.4534 14.7253 31.5814 14.192 31.5814 13.584ZM35.2092 13.552C35.2092 12.6667 35.3905 11.8827 35.7532 11.2C36.1265 10.5173 36.6279 9.98933 37.2572 9.616C37.8972 9.232 38.6012 9.04 39.3692 9.04C40.0625 9.04 40.6652 9.17867 41.1772 9.456C41.6999 9.72267 42.1159 10.0587 42.4252 10.464V9.184H44.2652V18H42.4252V16.688C42.1159 17.104 41.6945 17.4507 41.1612 17.728C40.6279 18.0053 40.0199 18.144 39.3372 18.144C38.5799 18.144 37.8865 17.952 37.2572 17.568C36.6279 17.1733 36.1265 16.6293 35.7532 15.936C35.3905 15.232 35.2092 14.4373 35.2092 13.552ZM42.4252 13.584C42.4252 12.976 42.2972 12.448 42.0412 12C41.7959 11.552 41.4705 11.2107 41.0652 10.976C40.6599 10.7413 40.2225 10.624 39.7532 10.624C39.2839 10.624 38.8465 10.7413 38.4412 10.976C38.0359 11.2 37.7052 11.536 37.4492 11.984C37.2039 12.4213 37.0812 12.944 37.0812 13.552C37.0812 14.16 37.2039 14.6933 37.4492 15.152C37.7052 15.6107 38.0359 15.9627 38.4412 16.208C38.8572 16.4427 39.2945 16.56 39.7532 16.56C40.2225 16.56 40.6599 16.4427 41.0652 16.208C41.4705 15.9733 41.7959 15.632 42.0412 15.184C42.2972 14.7253 42.4252 14.192 42.4252 13.584ZM51.1089 9.04C51.8023 9.04 52.4209 9.184 52.9649 9.472C53.5196 9.76 53.9516 10.1867 54.2609 10.752C54.5703 11.3173 54.7249 12 54.7249 12.8V18H52.9169V13.072C52.9169 12.2827 52.7196 11.68 52.3249 11.264C51.9303 10.8373 51.3916 10.624 50.7089 10.624C50.0263 10.624 49.4823 10.8373 49.0769 11.264C48.6823 11.68 48.4849 12.2827 48.4849 13.072V18H46.6609V9.184H48.4849V10.192C48.7836 9.82933 49.1623 9.54667 49.6209 9.344C50.0903 9.14133 50.5863 9.04 51.1089 9.04ZM59.1796 10.672V15.552C59.1796 15.8827 59.2542 16.1227 59.4036 16.272C59.5636 16.4107 59.8302 16.48 60.2036 16.48H61.3236V18H59.8836C59.0622 18 58.4329 17.808 57.9956 17.424C57.5582 17.04 57.3396 16.416 57.3396 15.552V10.672H56.2996V9.184H57.3396V6.992H59.1796V9.184H61.3236V10.672H59.1796Z" fill="black"/>
<path d="M63.7407 18.112C63.41 18.112 63.1327 18 62.9087 17.776C62.6847 17.552 62.5727 17.2747 62.5727 16.944C62.5727 16.6133 62.6847 16.336 62.9087 16.112C63.1327 15.888 63.41 15.776 63.7407 15.776C64.0607 15.776 64.3327 15.888 64.5567 16.112C64.7807 16.336 64.8927 16.6133 64.8927 16.944C64.8927 17.2747 64.7807 17.552 64.5567 17.776C64.3327 18 64.0607 18.112 63.7407 18.112Z" fill="#6C7275"/>
</svg>
