<svg width="70" height="24" fill="none" xmlns="http://www.w3.org/2000/svg"><path d="M1.108 9.216c.064-.992.442-1.765 1.136-2.32.704-.555 1.6-.832 2.688-.832.746 0 1.392.133 1.936.4s.954.63 1.232 1.088c.277.459.416.976.416 1.552 0 .661-.176 1.227-.528 1.696-.352.47-.774.784-1.264.944v.064c.629.192 1.12.544 1.472 1.056.352.501.528 1.147.528 1.936 0 .63-.144 1.19-.432 1.68-.288.49-.715.88-1.28 1.168-.566.277-1.243.416-2.032.416-1.152 0-2.102-.293-2.848-.88-.736-.597-1.131-1.45-1.184-2.56h1.76c.042.565.261 1.03.656 1.392.394.352.928.528 1.6.528.65 0 1.152-.176 1.504-.528.352-.363.528-.827.528-1.392 0-.747-.24-1.275-.72-1.584-.47-.32-1.195-.48-2.176-.48h-.416v-1.504h.432c.864-.01 1.52-.155 1.968-.432.458-.277.688-.715.688-1.312 0-.512-.166-.917-.496-1.216-.331-.31-.8-.464-1.408-.464-.598 0-1.062.155-1.392.464a1.807 1.807 0 00-.592 1.12H1.108zM12.704 6.16V18H10.88V6.16h1.824zm10.474 7.216c0 .33-.02.63-.064.896h-6.736c.054.704.315 1.27.784 1.696.47.427 1.046.64 1.728.64.982 0 1.675-.41 2.08-1.232h1.968a3.997 3.997 0 01-1.456 2c-.693.512-1.557.768-2.592.768-.842 0-1.6-.187-2.272-.56a4.185 4.185 0 01-1.568-1.6c-.373-.693-.56-1.493-.56-2.4 0-.907.182-1.701.544-2.384a3.937 3.937 0 011.552-1.6c.672-.373 1.44-.56 2.304-.56.832 0 1.574.181 2.224.544a3.83 3.83 0 011.52 1.536c.363.65.544 1.403.544 2.256zm-1.904-.576c-.01-.672-.25-1.21-.72-1.616-.469-.405-1.05-.608-1.744-.608-.629 0-1.168.203-1.616.608-.448.395-.714.933-.8 1.616h4.88zm7.251-3.76c.683 0 1.286.139 1.808.416.534.267.95.603 1.248 1.008v-1.28h1.84v8.96c0 .81-.17 1.53-.512 2.16a3.673 3.673 0 01-1.488 1.504c-.64.363-1.408.544-2.304.544-1.194 0-2.186-.283-2.976-.848-.789-.555-1.237-1.312-1.344-2.272h1.808c.14.459.432.827.88 1.104.46.288 1.003.432 1.632.432.736 0 1.328-.224 1.776-.672.46-.448.688-1.099.688-1.952v-1.472c-.309.416-.73.768-1.264 1.056-.522.277-1.12.416-1.792.416a4.028 4.028 0 01-2.112-.576 4.276 4.276 0 01-1.504-1.632c-.362-.704-.544-1.499-.544-2.384 0-.885.182-1.67.544-2.352a4.064 4.064 0 013.616-2.16zm3.056 4.544c0-.608-.128-1.136-.384-1.584a2.584 2.584 0 00-.976-1.024 2.574 2.574 0 00-1.312-.352c-.469 0-.906.117-1.312.352a2.58 2.58 0 00-.992 1.008c-.245.437-.368.96-.368 1.568 0 .608.123 1.141.368 1.6.256.459.587.81.992 1.056a2.63 2.63 0 002.624 0 2.58 2.58 0 00.976-1.024c.256-.459.384-.992.384-1.6zm3.628-.032c0-.885.181-1.67.544-2.352a4.063 4.063 0 013.616-2.16c.694 0 1.296.139 1.808.416.523.267.939.603 1.248 1.008v-1.28h1.84V18h-1.84v-1.312c-.31.416-.73.763-1.264 1.04-.533.277-1.141.416-1.824.416a3.92 3.92 0 01-2.08-.576 4.275 4.275 0 01-1.504-1.632c-.362-.704-.544-1.499-.544-2.384zm7.216.032c0-.608-.128-1.136-.384-1.584a2.584 2.584 0 00-.976-1.024 2.574 2.574 0 00-1.312-.352c-.47 0-.907.117-1.312.352a2.58 2.58 0 00-.992 1.008c-.245.437-.368.96-.368 1.568 0 .608.123 1.141.368 1.6.256.459.587.81.992 1.056a2.627 2.627 0 002.624 0c.406-.235.73-.576.976-1.024.256-.459.384-.992.384-1.6zM51.11 9.04c.693 0 1.312.144 1.856.432a3.06 3.06 0 011.296 1.28c.31.565.464 1.248.464 2.048V18h-1.808v-4.928c0-.79-.197-1.392-.592-1.808-.395-.427-.933-.64-1.616-.64s-1.227.213-1.632.64c-.395.416-.592 1.019-.592 1.808V18H46.66V9.184h1.824v1.008a3.033 3.033 0 011.136-.848 3.71 3.71 0 011.488-.304zm8.07 1.632v4.88c0 .33.075.57.225.72.16.139.426.208.8.208h1.12V18h-1.44c-.822 0-1.451-.192-1.888-.576-.438-.384-.656-1.008-.656-1.872v-4.88H56.3V9.184h1.04V6.992h1.84v2.192h2.144v1.488H59.18z" fill="#000"/><path d="M63.74 18.112a1.13 1.13 0 01-.831-.336 1.13 1.13 0 01-.336-.832c0-.33.112-.608.336-.832a1.13 1.13 0 01.832-.336c.32 0 .592.112.816.336.224.224.336.501.336.832 0 .33-.112.608-.336.832a1.11 1.11 0 01-.816.336z" fill="#6C7275"/></svg>